<svg xmlns="http://www.w3.org/2000/svg" xml:space="preserve" fill-rule="evenodd" clip-rule="evenodd" image-rendering="optimizeQuality" shape-rendering="geometricPrecision" text-rendering="geometricPrecision" viewBox="0 0 1572 417">
  <defs>
    <style>
      .fil3{fill:#00040a}.fil0{fill:#001a38}.fil1{fill:#002c60}.fil4{fill:#e1dde4}
    </style>
  </defs>
  <g id="Layer_x0020_1">
    <g id="_105553356810592">
      <path d="M691 49h175v154H691z" class="fil0"/>
      <path d="M724 0h105l37 54H691z" class="fil1"/>
      <path fill="#85a5c8" d="M717 80h125v124H717z"/>
      <path d="M100 123h1358c27 0 50 22 50 50v122H50V173c0-27 22-50 50-50" class="fil1"/>
      <path d="M0 216h1572v201H0z" class="fil0"/>
      <path d="M153 245c-15 4-12 19-12 33 0 27-1 65 0 90 1 16 4 23 21 23 60 0 120-1 179 0 120 1 240 0 360 0 209 0 419 1 628 0 13 0 83 1 90 0 14-3 12-18 12-33 0-30 1-60 0-90 0-17-4-23-22-24-59-1-120-1-179 0-120 1-240 0-360 0H242c-15 0-80-2-89 1" class="fil3"/>
      <path d="M1227 267c-14 2-25 11-31 18-7 9-12 24-9 39 8 41 62 55 89 20 26-34-5-85-49-78z" class="fil4"/>
      <path d="M310 268c-62 8-54 101 11 95 25-3 45-23 42-53-2-23-25-45-52-41z" class="fil4"/>
      <path d="M1098 283v75c0 7 3 4 24 5 18 0 36 1 45-12 6-9 7-26-7-34-2-1-1-1-2-1l-2-1s0-1 1 0c1 2 0 0 3-2 2-1 2-1 3-3 7-8 8-20 1-29-11-15-44-12-66-12v15z" class="fil4"/>
      <path d="M193 270c-1 30 0 62 0 92h17v-32c5-1 52 5 50-33-1-12-9-21-17-24-11-5-46-5-50-3" class="fil4"/>
      <path d="M1226 282c-5 2-6 1-11 6-3 2-6 6-8 9-14 25 4 61 38 51 21-6 29-35 16-54-8-12-24-17-36-12z" class="fil3"/>
      <path d="M307 282c-40 11-27 76 15 66 17-4 27-20 23-41-3-16-18-30-38-25" class="fil3"/>
      <path d="m1319 313-24 35c-2 3-7 10-8 13h17c2-2 5-7 6-10l19-30c2 1 5 8 6 9 2 4 4 6 6 10l12 20h17c-1-8-30-46-31-50 0-3 10-17 13-22s13-17 14-22h-15l-16 24c-3 4-2 5-5 8-3-3-4-4-6-7l-16-24h-16c0 5 9 16 13 22l10 16c1 2 2 3 3 6z" class="fil4"/>
      <path d="M579 362h62v-12h-45v-29h37l-1-13h-36c-1-4-1-20-1-25 4-3 37-1 45-1v-13h-60c-2 6 0 80 0 93z" class="fil4"/>
      <path d="M564 350c-1-2-5-7-8-10-3 1 0 0-2 1-22 17-54 5-54-27 0-39 40-40 57-25 6-6 4-5 7-10-14-19-81-22-80 35 0 57 68 54 80 36" class="fil4"/>
      <path d="M380 269v1c-1 11-1 19 0 31v60h56v-13h-39l-1-79z" class="fil4"/>
      <path d="M840 315c15 1 42 3 42-14 0-7-4-7-7-11 4-4 5-4 5-12-3-11-32-9-39-8-2 7-1 37-1 46z" class="fil4"/>
      <path d="M450 362h17c-1-15 0-32 0-47 0-11 1-37-1-46h-16z" class="fil4"/>
      <path d="M729 315h8v-14c7-1 37 4 32-19-1-7-7-11-14-12-6-1-20-1-26 0-2 4-1 40 0 46z" class="fil4"/>
      <path d="M211 282c-2 3-1 11-1 17v17c8 2 32 2 34-12 4-22-18-22-33-22" class="fil3"/>
      <path d="M1115 349c13 0 41 3 41-14 0-8-6-12-14-13-7-1-20-2-27-1z" class="fil3"/>
      <path d="M822 373h9l4-10c5-2 18-1 24 0 3 4 4 6 5 10h9c-3-10-17-33-22-44h-8l-22 43z" class="fil4"/>
      <path d="M1116 308c7 0 24 1 30-2 10-6 12-25-16-25h-14z" class="fil3"/>
      <path d="M781 269c-1 3-1 1-1 7 0 10-1 25 3 31 10 13 32 9 37 3 7-8 4-30 4-41h-8v30c0 8-8 12-18 10-15-3-7-29-10-40z" class="fil4"/>
      <path d="M1005 310c-1-1-2-3-3-5-3 1-11 7-23 3-19-5-16-37 12-33 6 1 6 2 10 4 3-1 4-3 4-6-14-6-28-9-41 4-11 12-9 41 27 38 3 0 6 0 8-1z" class="fil4"/>
      <path d="M820 370c0-3-2-4-3-6-14 6-35 5-33-14 1-7 6-13 12-14 16-5 21 10 24-2-7-9-41-10-45 16-2 12 7 19 15 22 7 3 25 2 31-2z" class="fil4"/>
      <path d="M895 269c-2 4-1 41-1 46h34v-6c-7 0-20 1-25-1l-1-39h-8z" class="fil4"/>
      <path d="M879 373h32v-5h-23c-1-4-1-33 0-38h-8c-2 9-1 33-1 44z" class="fil4"/>
      <path d="M920 330v43h33v-5h-24l-1-38z" class="fil4"/>
      <path d="M737 295c9 2 22 0 23-8 2-12-13-12-23-11z" class="fil3"/>
      <path d="M938 270c-1 3-1 7-1 11v34h9v-34c0-10 3-14-8-12z" class="fil4"/>
      <path d="M849 309c8 1 25 2 25-8 0-9-16-9-25-8-1 3-1 12 0 16" class="fil3"/>
      <path d="M849 287h15c5 0 7-2 7-7l-3-4-20-1v12z" class="fil3"/>
      <path d="M837 357h19c0-2-8-18-9-20-3 2-1 1-3 4l-7 15z" class="fil3"/>
    </g>
  </g>
</svg>
