<svg xmlns="http://www.w3.org/2000/svg" viewBox="0 0 64 64" fill="currentColor">
  <path d="M21.6 25.8c2.9-.5 5.1-4.2 4.6-8.3-.4-4.1-3.1-7-6-6.5-2.9.5-5.1 4.2-4.6 8.3.4 4.1 3.1 7 6 6.5zm20.8 0c2.9.5 5.6-2.4 6-6.5.4-4.1-1.7-7.8-4.6-8.3-2.9-.5-5.6 2.4-6 6.5-.4 4.1 1.7 7.8 4.6 8.3zM16 34.5c-.3 3.6 1.6 6.8 4.1 7.2 2.5.4 4.7-2.3 5-5.9.3-3.6-1.6-6.8-4.1-7.2-2.5-.4-4.7 2.3-5 5.9zm32-.4c-.3-3.6-2.5-6.3-5-5.9-2.5.4-4.4 3.6-4.1 7.2.3 3.6 2.5 6.3 5 5.9 2.5-.4 4.4-3.6 4.1-7.2zM43 29c-2.8-6.1-8.8-8.1-11-8.1s-8.2 2-11 8.1C18.2 34.6 16 39 16 43c0 6.1 5.6 9 16 9s16-2.9 16-9c0-4-2.2-8.4-5-14z"/>
</svg>
