<svg xmlns="http://www.w3.org/2000/svg" xml:space="preserve" fill-rule="evenodd" clip-rule="evenodd" image-rendering="optimizeQuality" shape-rendering="geometricPrecision" text-rendering="geometricPrecision" viewBox="0 0 1572 985">
  <defs>
    <clipPath id="id0">
      <use href="#reuse-0"/>
    </clipPath>
    <style>
      .fil3{fill:#00040a}.fil0{fill:#001a38}.fil1{fill:#002c60}.fil4{fill:#e1dde4}
    </style>
    <path id="reuse-0" d="M127 0h1318c42 0 77 34 77 77v832c0 42-34 77-77 77H127c-42 0-77-34-77-77V77c0-42 34-77 77-77"/>
  </defs>
  <g id="Layer_x0020_1">
    <g id="_105553356695488">
      <g clip-path="url(#id0)">
        <path d="M-272.429 780.943 1298.572-284.39l69.666 102.733L-202.764 883.676z" class="fil1"/>
        <path d="m-412.083 308.251 1207.321-818.71 69.665 102.732-1207.32 818.71z" class="fil1"/>
        <path d="m-354.128 550.712 1207.321-818.71 69.665 102.732-1207.32 818.71z" class="fil1"/>
        <path d="M-98.858 944.455 1472.143-120.878l69.666 102.733L-29.193 1047.188z" class="fil1"/>
        <path d="M109.764 1093 1680.765 27.667l69.666 102.733L179.429 1195.733z" class="fil1"/>
        <path d="M24 53v1305c0 25-4 87 3 107 26 8 824 3 892 3 292 0 626 4 912 0l54-1c6-389 0-799 1-1190v-465L25-189 24 54z" class="fil0"/>
      </g>
      <path fill="none" d="M127 0h1318c42 0 77 34 77 77v832c0 42-34 77-77 77H127c-42 0-77-34-77-77V77c0-42 34-77 77-77"/>
      <rect width="1572" height="100" y="885" class="fil0" rx="58" ry="24"/>
      <path d="M105 20c-2 4-1 47-1 55v772c0 8-2 52 1 55h655c2-4 0-46 1-54V682c-1-73 0-147 0-221V74c0-9 2-50-1-55-8-1-152 0-164 0-54 0-110 1-164 0-80-1-165 0-246 0h-72c-4 0-6 0-9 1" class="fil1"/>
      <path d="M805 20c-2 4-1 47-1 55v772c0 8-2 52 1 55h655c2-4 0-46 1-54V682c-1-73 0-147 0-221V74c0-9 2-50-1-55-8-1-152 0-164 0-54 0-110 1-164 0-80-1-165 0-246 0h-72c-4 0-6 0-9 1" class="fil1"/>
      <path d="M920 545h423c4 0 3-1 3-6-1-69 1-141 0-210-1-36 0-72 0-108 0-20 1-95 0-108-6-2-91-1-106-1-89-1-179 0-267 0-11 0-45-1-54 0-2 7 0 301 0 324v54c0 9-2 49 1 54z" class="fil0"/>
      <path d="M1206 321c1 1-2 1 6 2h120c1-13 0-108 0-129 0-73 5-68-13-68h-17c-14 0-94-1-96 2s-1 56-1 64v65z" class="fil3"/>
      <path d="M1205 338v192c5 2 5 2 12 2h114V337c-37-1-76 0-114-1-6 0-8 0-12 2" class="fil3"/>
      <path d="M1072 127c-3 6-1 123-1 146 0 9-1 43 0 49 2 1-2 0 2 1h57c12 0 51 1 60-1 4-2 2-13 2-17V164c0-7 2-34-2-37-3-3-114-2-118 0" class="fil3"/>
      <path d="M1071 364c0 19-1 164 1 166 2 3 30 2 36 2 12 0 80 1 83-1 4-2 2-19 2-23 0-22 2-162-1-172l-97-1c-28 0-23-5-23 28z" class="fil3"/>
      <path d="M1207 322h123V129h-123z" class="fil4"/>
      <path d="M1207 353v177h123V338h-123z" class="fil4"/>
      <path d="M935 321h121V129H935z" class="fil4"/>
      <path d="M1056 531V338c-11 2-103 1-122 0v192c17 0 111-1 121 0z" class="fil4"/>
      <path d="M1073 322h117V129h-116c-2 6-1 172-1 193" class="fil4"/>
      <path d="M1073 530h117V338h-117z" class="fil4"/>
      <path d="M1056 531c-10-2-104-1-121 0V339c19 0 110 1 122 0-19-2-39-1-62-1-15 0-48-2-61 1-1 20-3 187 1 194 13 1 116 2 121-1z" class="fil3"/>
      <path d="M909 869c9 1 44 0 55 0h168c25 0 215 1 223-1V580c-7-1-211 0-223 0-14 0-215-1-223 0-2 3-1 137-1 144q1.5 72 0 144z" class="fil0"/>
      <path d="M210 869c9 1 44 0 55 0h168c25 0 215 1 223-1V580c-7-1-211 0-223 0-14 0-215-1-223 0-2 3-1 137-1 144q1.5 72 0 144z" class="fil0"/>
      <path d="M210 544c7 1 19 0 27 0 67 0 418-1 421 1 2-17 0-37 1-54V330c0-72 1-144 0-216-5-1-98-1-112-1-47 0-330-1-336 1-2 7-1 202-1 215 0 23-1 210 1 215z" class="fil0"/>
      <path d="M234 134c0 2 0 0-1 2v363c0 29-4 22 51 22h347c3-6 1-83 1-96 1-62 0-132 0-195 0-10 2-94-2-96-5-2-86-1-98-1H333c-18 0-88-1-99 1" class="fil3"/>
      <path d="M235 519c6 2 176 1 197 1 66 0 132-1 198 0V136H235z" class="fil4"/>
      <path d="M426 255c-15 5-21 16-17 31 7 31 53 23 46-12-2-11-15-23-29-18z" class="fil3"/>
      <path d="M478 339c-5 1-5 0-9 4l-6 6c-10 16 1 45 27 38 21-6 22-35 6-45-4-3-12-5-19-3z" class="fil3"/>
      <path d="M463 304h8v-22h7c1 2 2 3 3 5l11 17h7c0-3-14-21-15-23 16-4 19-32-21-26v50z" class="fil3"/>
      <path d="m397 223 7-1v-22c10 1 6 0 15 14 3 5 6 12 14 8l-15-22 2-1c10-6 11-15 6-21-6-7-19-5-29-5z" class="fil3"/>
      <path d="M425 263c-10 4-12 15-9 23 7 23 39 11 31-13-4-12-15-14-22-10" class="fil4"/>
      <path d="M480 345c-6 1-8 3-10 7-2 5-4 9-3 15 1 9 8 16 20 14 18-4 17-40-7-36" class="fil4"/>
      <path d="m364 339-7-1c-1 22 5 43-13 43-8 0-13-6-13-15 0-8-1-21 1-29h-7c-1 4-1 30 0 34 3 19 34 22 38 0 1-5 1-28 0-34z" class="fil3"/>
      <path d="M481 223h18c6 0 15 2 13-4-1-2-22-1-24-1v-18h20v-5h-19v-15h23l1-6h-31v50z" class="fil3"/>
      <path d="M440 179v43h30l1-5h-24v-18h20v-6h-20v-15c6 0 19 1 23 0v-6h-31v7z" class="fil3"/>
      <path d="M412 387h30l1-5h-24l-1-17h20v-5h-19v-15h23l1-6h-30c-1 6-1 46 0 49z" class="fil3"/>
      <path d="M397 371c1 9-7 13-16 9-3-1-3-2-6-3l-3 3c6 10 28 10 32-4 5-20-21-16-23-24 0-5 2-9 7-10 11-2 13 12 16 0-12-8-27-7-29 7-1 8 3 12 8 14 12 5 9 0 15 8z" class="fil3"/>
      <path d="M516 387c5 2 6-1 6-1v-20h21v-5h-21l1-18h16c6 0 9 1 7-5-6-1-26-1-30 0-1 6-1 45 0 48z" class="fil3"/>
      <path d="M359 178v44c3 0 4 1 6 0v-20h18c3 0 1 0 2-1v-5h-20c0-5-1-13 1-17h23l1-6h-31v6z" class="fil3"/>
      <path d="M397 277c-4 2-13 1-18 0v-18h24v-5h-30c-2 7-1 40-1 49h7v-21c6 1 14 1 20 0 2-6-1-5-2-6z" class="fil3"/>
      <path d="M471 277c8 0 17 0 18-9 0-10-9-9-18-9z" class="fil4"/>
      <path d="M405 196c11-1 18 0 17-13-5-6-8-5-17-5v19z" class="fil4"/>
      <path fill="#85a5c8" d="M397 277h-17v-17l21 1 2-1h-24v18c5 1 14 2 18 0z"/>
      <path d="m394 463-5-4c-12 11-30 4-30-12 0-9 3-14 9-17 11-5 13 0 21 2l4-5c-6-6-19-9-28-4-19 9-18 39 1 47 12 5 23-1 28-6z" class="fil3"/>
      <path d="M506 455c1 9-7 13-16 9-3-1-3-2-6-3l-3 3c6 10 28 10 32-4 5-20-21-16-23-24 0-5 2-9 7-10 11-2 13 12 16 0-12-8-27-7-29 7-1 8 3 12 8 14 12 5 9 0 15 8z" class="fil3"/>
      <path fill-rule="nonzero" d="m398 469 18-48h7l20 48h-7l-6-14h-20l-5 14zm14-20h16l-5-13c-2-4-3-7-3-10-1 3-1 6-3 9zm43 20v-42h-16v-6h38v6h-16v42z"/>
    </g>
  </g>
</svg>
